<?xml version="1.0" standalone="no"?>
<!DOCTYPE svg PUBLIC "-//W3C//DTD SVG 20010904//EN"
 "http://www.w3.org/TR/2001/REC-SVG-20010904/DTD/svg10.dtd">
<svg version="1.0" xmlns="http://www.w3.org/2000/svg"
 width="600.000000pt" height="840.000000pt" viewBox="0 0 600.000000 840.000000"
 preserveAspectRatio="xMidYMid meet">
<metadata>
Created by potrace 1.16, written by Peter Selinger 2001-2019
</metadata>
<g transform="translate(0.000000,840.000000) scale(0.100000,-0.100000)"
fill="#000000" stroke="none">
<path d="M0 4200 l0 -4200 3000 0 3000 0 0 4200 0 4200 -3000 0 -3000 0 0
-4200z m3146 2879 c80 -14 265 -77 284 -95 9 -9 -9 -4 -43 11 -32 14 -59 25
-60 25 -2 0 -3 -11 -3 -24 0 -13 5 -23 11 -23 21 1 105 -27 105 -36 0 -4 4 -6
9 -3 5 3 22 -9 38 -27 15 -17 66 -60 112 -95 63 -48 86 -60 92 -50 5 7 9 10
10 6 1 -5 3 -12 4 -18 1 -5 3 -17 4 -26 0 -8 5 -13 9 -10 12 7 49 -89 55 -141
3 -24 3 -43 1 -43 -10 0 -34 62 -27 73 5 9 4 9 -8 0 -12 -9 -18 -10 -27 -1 -8
8 -15 8 -26 -1 -9 -7 -21 -9 -28 -5 -7 5 -20 10 -30 11 -19 3 -18 -24 1 -36 7
-5 12 -11 12 -15 -3 -20 0 -26 9 -21 6 4 9 1 8 -7 -2 -7 5 -12 15 -12 9 1 17
-4 17 -12 0 -8 -2 -14 -4 -14 -8 0 -81 44 -86 52 -3 4 -27 17 -53 28 -40 18
-46 24 -36 36 8 9 10 33 6 69 -4 42 -2 55 8 55 8 0 12 -9 11 -24 -2 -18 1 -22
15 -19 19 5 35 -29 23 -49 -5 -8 0 -7 11 2 17 14 18 13 12 -4 -6 -16 -5 -17 8
-6 12 10 15 10 16 -1 0 -10 2 -11 6 -1 3 8 11 5 24 -10 18 -22 18 -22 20 -3 1
11 1 23 0 28 0 4 3 7 9 7 5 0 10 -4 10 -10 0 -5 5 -10 10 -10 6 0 10 12 10 28
0 19 -3 23 -9 13 -9 -13 -35 -6 -27 7 2 4 0 16 -5 27 -7 19 -8 19 -8 -2 -1
-33 -21 -28 -22 5 -1 15 -1 31 0 36 1 5 -4 6 -12 3 -8 -3 -20 -1 -28 4 -10 6
-10 9 -1 9 23 0 12 16 -28 39 -23 13 -37 27 -34 33 5 7 2 8 -6 3 -7 -4 -16 -2
-21 6 -8 11 -12 10 -24 -5 -15 -20 -15 -20 -15 1 0 14 -13 26 -42 39 -24 10
-46 18 -51 16 -4 -1 -13 11 -18 28 -6 16 -15 30 -21 30 -5 0 -7 -4 -4 -9 3 -5
-1 -14 -8 -20 -10 -9 -16 -9 -21 -1 -5 8 -10 8 -20 0 -10 -8 -14 -4 -19 16 -7
25 -8 26 -21 8 -8 -11 -15 -27 -15 -36 0 -10 -4 -18 -10 -18 -6 0 -6 9 0 26
10 27 5 48 -10 39 -14 -9 -40 6 -40 24 -1 14 -2 14 -13 1 -13 -18 -47 -15 -47
3 0 8 -3 8 -8 2 -4 -5 -17 -16 -29 -23 -20 -10 -23 -10 -23 4 0 13 -15 15
-101 12 -55 -1 -105 -5 -110 -8 -5 -3 -10 -20 -12 -38 -2 -18 -7 -35 -12 -40
-4 -4 -5 7 -2 23 10 53 0 55 -102 24 -52 -15 -99 -25 -104 -22 -6 3 -7 1 -3
-5 4 -7 1 -12 -8 -12 -27 0 -77 -36 -103 -76 -18 -26 -26 -52 -28 -86 0 -26 2
-48 7 -48 15 0 8 -17 -21 -50 -17 -20 -27 -41 -24 -54 3 -19 3 -19 -5 -2 -8
17 -9 17 -25 2 -9 -10 -17 -25 -18 -34 -1 -43 -12 -147 -15 -151 -13 -14 -1
133 16 199 11 43 17 85 14 94 -3 9 3 32 15 51 12 20 21 44 21 53 1 26 32 58
96 97 53 32 54 50 1 24 -19 -9 -18 -7 3 10 14 11 28 21 32 21 5 0 41 15 80 33
119 55 205 70 376 63 81 -3 167 -8 192 -10 l45 -4 -33 14 c-18 8 -54 17 -80
21 -26 3 -54 9 -62 14 -20 11 -4 11 66 -2z m-4 -178 c7 10 9 9 5 -7 -2 -12 0
-28 4 -37 6 -10 4 -21 -7 -31 -8 -9 -11 -16 -5 -16 5 0 13 -9 16 -20 3 -11 13
-20 22 -20 10 0 13 6 9 16 -3 8 1 22 9 30 8 9 16 27 16 42 1 23 3 22 8 -8 4
-19 7 -49 7 -66 -1 -21 3 -31 13 -30 8 1 16 -5 18 -11 7 -19 -34 -16 -41 3 -3
9 -4 20 -1 25 4 5 -1 6 -9 3 -9 -3 -13 -10 -10 -15 6 -10 -26 -7 -126 15 -49
10 -78 12 -84 6 -6 -6 -18 -10 -27 -10 -13 0 -16 6 -11 23 3 12 11 26 19 30 7
4 13 16 12 25 0 14 -2 13 -9 -3 -8 -19 -9 -19 -9 3 -1 13 5 22 14 22 8 0 15
-4 15 -10 0 -5 9 -10 19 -10 11 0 23 5 26 10 3 6 12 10 18 10 8 0 8 -3 2 -8
-18 -13 -15 -32 5 -32 11 0 20 -7 20 -15 0 -20 20 -15 41 10 11 12 14 24 8 30
-5 5 -9 20 -8 35 0 14 3 19 6 11 5 -11 7 -11 15 0z m238 -61 c-3 -3 -8 -30 -9
-60 -3 -56 6 -67 12 -14 2 16 8 38 14 48 8 15 11 3 11 -57 0 -61 -3 -79 -18
-92 -17 -16 -22 -15 -67 7 l-48 24 -5 66 c-4 48 -2 65 8 65 6 0 12 -9 12 -19
0 -10 4 -18 9 -18 6 0 8 8 6 18 -1 10 3 29 11 42 l14 25 6 -22 c9 -31 20 -29
29 5 7 25 8 25 15 7 4 -11 4 -22 0 -25z m-474 -117 c4 -14 2 -28 -4 -32 -11
-7 -33 -86 -30 -111 0 -8 0 -33 -1 -55 -1 -33 -4 -37 -14 -25 -9 11 -32 15
-94 13 -45 -1 -90 -6 -101 -12 -18 -10 -19 -5 -18 112 0 67 3 106 6 87 l7 -35
4 35 c4 31 7 35 38 38 18 2 38 -1 44 -7 6 -6 14 -6 22 2 6 7 40 13 73 14 59 2
62 0 68 -24z m134 2 c47 -9 86 -19 88 -24 1 -4 14 -6 28 -3 20 4 26 0 31 -17
3 -13 11 -20 19 -17 8 3 14 2 14 -3 0 -11 -26 -32 -32 -26 -2 3 -4 -5 -3 -18
1 -15 8 -22 22 -21 20 1 23 -15 9 -61 -5 -15 -4 -15 5 3 7 12 16 22 21 22 9 0
4 75 -7 103 -4 9 -3 17 3 17 20 0 147 -52 154 -63 4 -7 8 -9 8 -5 0 10 60 -12
60 -22 0 -5 16 -14 36 -20 23 -8 34 -17 30 -26 -3 -7 0 -16 6 -20 6 -4 8 -3 4
4 -3 6 -2 13 4 17 5 3 10 1 10 -4 0 -6 3 -10 8 -9 17 4 62 -26 58 -39 -4 -8
-1 -11 5 -7 6 3 22 1 35 -7 20 -10 24 -21 25 -63 l2 -51 6 40 7 40 7 -50 c3
-27 9 -81 13 -119 l7 -69 -69 37 c-38 21 -73 45 -77 53 -5 8 -16 11 -27 8 -10
-3 -24 0 -32 8 -7 7 -19 12 -26 9 -6 -2 -12 1 -12 6 0 11 -106 55 -157 66 -33
8 -60 31 -45 40 4 3 9 28 11 55 1 38 -2 51 -12 51 -11 0 -14 -16 -13 -70 0
-39 -2 -70 -6 -70 -4 0 -14 8 -24 17 -9 9 -24 18 -33 18 -17 2 -167 32 -211
43 -14 3 -36 5 -49 4 -20 -1 -23 2 -19 28 2 16 1 27 -4 24 -4 -3 -8 0 -8 6 0
6 7 13 15 16 8 4 15 10 15 16 0 5 -4 6 -10 3 -5 -3 -10 -2 -10 4 0 5 9 13 20
16 13 4 20 15 20 30 0 17 -4 23 -14 19 -8 -3 -12 -13 -9 -25 3 -11 0 -19 -6
-19 -8 0 -10 14 -7 43 3 23 5 54 5 70 1 31 0 31 111 12z m-422 -32 c5 -10 8
-29 7 -43 -2 -14 -6 -56 -9 -95 -8 -90 -13 -105 -36 -105 -10 0 -24 -2 -32 -3
-7 -2 -9 -2 -4 1 4 2 4 7 -2 11 -6 4 -12 30 -13 59 -2 29 -6 55 -11 58 -4 3
-8 10 -8 16 0 7 4 7 13 -1 19 -15 27 -4 27 40 0 44 9 71 20 64 5 -3 11 -1 15
5 9 15 23 12 33 -7z m235 -283 c-10 -101 -10 -110 -12 -136 -1 -24 -3 -25 -68
-23 -38 1 -81 -2 -97 -6 -19 -5 -27 -4 -22 3 10 16 -4 41 -20 35 -8 -3 -14 0
-14 6 0 6 4 11 9 11 4 0 6 11 3 25 -2 15 -9 22 -16 18 -6 -3 -3 3 7 14 9 11
17 36 17 56 0 30 4 38 23 42 29 6 81 10 144 10 l52 0 -6 -55z m157 25 c56 -4
372 -96 490 -142 96 -38 203 -92 216 -108 18 -23 10 -166 -10 -180 -10 -8 -16
-25 -15 -46 1 -19 3 -26 6 -16 2 9 8 17 13 17 4 0 6 -9 3 -20 -3 -11 -9 -20
-13 -20 -4 0 -15 -15 -25 -33 -16 -31 -16 -35 -1 -65 18 -34 36 -35 36 -1 0
10 5 19 10 19 6 0 10 -16 10 -36 0 -19 4 -33 9 -30 5 4 12 0 14 -6 5 -12 12
85 8 106 -1 5 5 26 13 48 9 21 15 42 15 46 -1 4 0 18 1 32 2 14 6 3 9 -25 5
-37 3 -53 -8 -62 -11 -10 -10 -17 8 -45 11 -18 21 -27 21 -20 0 26 27 -12 34
-49 5 -25 4 -30 -3 -19 -9 12 -11 11 -11 -7 0 -13 -4 -23 -10 -23 -5 0 -9 -18
-7 -39 l3 -39 -37 21 c-21 12 -40 30 -43 39 -2 10 -10 18 -16 18 -7 0 -10 -7
-6 -15 3 -8 1 -15 -4 -15 -6 0 -10 8 -10 18 0 11 -9 27 -20 37 -11 10 -20 15
-20 10 0 -4 -7 -2 -15 5 -8 6 -18 9 -23 6 -6 -3 -12 4 -15 15 -4 15 -11 20
-21 16 -9 -4 -16 -1 -16 6 0 8 -3 8 -9 -2 -5 -7 -14 -10 -20 -7 -6 4 -9 11 -6
16 3 5 0 12 -6 16 -8 4 -9 3 -5 -4 4 -7 1 -12 -7 -12 -8 0 -18 11 -21 25 -4
16 -15 27 -34 31 -48 10 -52 13 -52 34 0 12 5 18 10 15 6 -3 10 3 10 14 0 10
6 22 13 25 10 5 10 7 0 12 -17 8 -16 34 1 34 7 0 28 3 46 6 28 6 32 4 28 -12
-2 -14 -11 -18 -33 -16 l-30 3 28 -26 c15 -14 32 -25 38 -25 15 0 10 74 -8
100 l-17 25 22 -19 c17 -15 25 -17 34 -8 9 9 9 12 0 12 -9 0 -11 10 -7 34 4
20 2 36 -4 40 -6 4 -8 20 -4 36 4 21 2 30 -7 30 -9 0 -9 4 1 18 13 15 12 16
-3 4 -10 -8 -18 -9 -22 -3 -4 6 -14 7 -23 4 -10 -4 -14 -2 -9 5 3 6 2 13 -4
17 -5 3 -10 3 -11 -2 -2 -24 -8 -46 -15 -51 -4 -4 -4 1 -1 10 8 23 -34 66 -71
74 -15 3 -34 8 -42 11 -8 4 -23 5 -34 4 -10 -2 -15 2 -12 7 3 6 -18 13 -49 17
-30 3 -57 10 -60 15 -3 6 -15 4 -26 -3 -15 -9 -21 -9 -27 0 -5 8 -32 11 -77
10 -39 -1 -83 2 -98 6 -21 6 -27 5 -21 -4 4 -7 2 -10 -7 -7 -8 3 -13 11 -11
17 1 6 -2 11 -8 11 -14 0 -12 54 2 68 7 7 19 10 28 6 8 -3 40 -7 70 -9z m-413
-56 c1 -38 -2 -49 -12 -45 -8 3 -15 0 -17 -5 -2 -5 -24 -11 -50 -12 -25 -1
-43 -6 -40 -11 3 -5 -4 -7 -16 -4 -12 3 -22 2 -24 -2 -2 -5 -21 -11 -43 -15
-31 -5 -37 -4 -25 5 12 10 11 11 -7 7 -28 -6 -30 13 -5 36 21 19 124 63 192
83 25 6 45 13 45 13 0 1 1 -22 2 -50z m6 -66 c-7 -2 -13 -11 -13 -18 0 -7 -5
-15 -10 -17 -6 -2 -12 -13 -13 -26 -1 -16 -6 -21 -19 -16 -10 3 -37 -3 -61
-14 -24 -11 -64 -22 -89 -26 -26 -4 -58 -16 -71 -27 -32 -25 -37 -24 -37 5 0
31 20 47 66 51 21 2 43 10 49 19 6 8 24 18 41 22 16 4 48 16 72 26 23 11 46
16 51 13 5 -3 12 -1 16 5 3 5 12 10 18 9 9 0 9 -2 0 -6z m544 -24 c72 -11 152
-19 178 -19 25 0 44 -4 41 -9 -4 -5 2 -7 12 -4 22 5 38 -12 47 -50 8 -31 -5
-36 -26 -10 -10 11 -10 14 -1 9 6 -4 12 -3 12 2 0 5 -15 17 -34 26 -26 12 -56
15 -132 12 -55 -2 -128 0 -164 4 -36 5 -87 10 -113 11 -53 3 -65 11 -45 33 17
18 69 17 225 -5z m-325 -89 c14 0 18 -9 20 -42 6 -131 6 -191 -3 -263 -6 -44
-11 -197 -13 -340 -3 -269 -17 -395 -42 -395 -8 0 -14 9 -14 20 0 12 -7 20
-16 20 -13 0 -15 -8 -12 -40 3 -33 0 -40 -14 -40 -12 0 -18 8 -18 21 0 11 5
17 10 14 6 -3 10 3 10 13 0 15 -5 19 -19 15 -15 -4 -20 1 -24 24 -4 27 -4 27
-6 -4 0 -18 -5 -33 -10 -33 -5 0 -8 15 -7 33 2 17 0 38 -3 46 -8 25 -20 -19
-20 -81 -1 -59 14 -80 22 -30 3 22 4 20 6 -10 0 -25 -3 -38 -11 -38 -10 0 -9
-3 1 -9 7 -5 10 -14 7 -20 -4 -6 -12 -8 -18 -5 -7 4 -8 2 -4 -5 4 -6 12 -9 17
-5 6 3 10 0 8 -7 -4 -34 2 -89 10 -89 5 0 12 10 15 23 l7 22 9 -22 c5 -13 14
-23 20 -23 6 0 8 -4 5 -10 -3 -5 -32 -10 -64 -10 l-58 0 -7 178 c-3 97 -4 188
-1 202 3 14 4 171 4 350 -3 603 -10 555 81 544 35 -4 65 -2 76 4 12 7 23 7 29
1 5 -5 17 -9 27 -9z m602 -133 c-1 -54 -5 -102 -9 -105 -3 -3 -21 2 -40 11
-18 9 -58 19 -87 22 -62 7 -90 11 -218 32 -52 8 -112 15 -132 16 -41 2 -43 4
-29 26 8 12 18 13 57 4 25 -6 61 -10 78 -8 38 3 137 -14 152 -26 6 -4 54 -10
107 -11 76 -2 97 -5 101 -18 3 -8 4 24 2 71 -3 63 0 86 9 86 9 0 11 -26 9
-100z m-834 -10 c0 -15 -9 -26 -27 -33 -52 -20 -99 -34 -118 -34 -20 0 -119
-27 -150 -41 l-20 -10 20 6 c15 5 17 3 9 -5 -9 -9 -17 -8 -33 2 -11 7 -21 16
-21 20 0 14 45 49 70 54 14 2 39 9 56 14 17 6 39 10 51 10 11 0 23 3 26 6 4 4
26 7 49 8 24 0 49 6 56 13 20 19 32 16 32 -10z m540 -97 c3 -1 22 -1 42 0 28
1 39 -4 48 -19 6 -12 14 -20 18 -19 19 5 92 -15 92 -25 0 -7 5 -4 11 6 18 30
28 18 27 -31 -1 -26 4 -57 10 -67 11 -18 11 -18 12 8 0 37 21 31 42 -13 14
-29 17 -31 17 -12 1 23 9 27 26 14 13 -9 19 -62 7 -62 -5 0 -9 -7 -9 -15 0 -9
4 -11 11 -6 11 9 40 -12 30 -21 -2 -3 3 -5 11 -5 11 0 14 6 9 16 -4 9 -8 35
-9 57 -2 47 10 49 55 13 14 -12 20 -18 14 -15 -6 3 -20 -4 -30 -15 -17 -19
-18 -21 -1 -30 22 -13 22 -37 1 -35 -9 0 -19 -5 -21 -11 -3 -7 0 -13 7 -13 6
0 8 5 5 10 -7 12 -3 12 19 4 9 -3 16 -14 16 -24 0 -20 37 -34 43 -16 2 6 7 8
11 5 11 -10 -5 -38 -19 -33 -7 3 -15 -2 -18 -10 -6 -16 25 -32 42 -22 5 3 7
-4 4 -15 -4 -12 -14 -24 -24 -26 -10 -3 -21 -15 -25 -27 -10 -32 -41 -49 -41
-22 0 8 6 12 12 9 15 -5 28 24 15 32 -6 4 -10 1 -10 -4 0 -6 -4 -11 -9 -11
-14 0 -11 92 2 109 9 12 9 13 0 7 -9 -5 -13 -1 -13 11 0 15 -2 16 -10 3 -5 -8
-10 -10 -10 -3 0 12 -17 12 -38 0 -8 -6 -9 -14 -2 -27 14 -26 13 -28 -12 -32
-19 -2 -24 -11 -29 -51 -3 -27 -2 -50 1 -52 4 -2 3 -26 -1 -52 -4 -26 -8 -73
-9 -103 -1 -30 -4 -49 -7 -41 -3 8 -19 27 -34 42 -27 26 -34 24 -30 -8 1 -7
-3 -13 -8 -13 -6 0 -8 -7 -5 -15 4 -8 0 -22 -7 -31 -10 -13 -10 -17 2 -25 10
-6 11 -9 1 -9 -7 0 -11 -4 -7 -9 3 -5 1 -12 -5 -16 -6 -4 -10 9 -10 34 0 23
-4 41 -10 41 -11 0 -18 -28 -22 -83 -2 -20 -7 -37 -12 -36 -5 0 -13 -6 -18
-15 -5 -9 -13 -14 -19 -11 -5 4 -9 -1 -9 -9 0 -9 -4 -16 -10 -16 -5 0 -9 8 -8
18 5 58 -7 56 -17 -3 -12 -68 -13 -69 -14 -22 0 26 -5 47 -11 47 -5 0 -10 -5
-10 -11 0 -5 -5 -7 -11 -3 -8 5 -8 1 0 -14 16 -30 14 -40 -11 -48 -13 -4 -30
-15 -39 -25 -9 -11 -21 -19 -27 -19 -6 0 -12 -10 -14 -22 -2 -18 -11 -23 -48
-26 -75 -5 -80 -6 -80 -13 0 -4 7 -10 16 -13 8 -3 13 -10 9 -16 -4 -6 -12 -6
-23 -1 -9 5 -25 12 -35 15 -15 5 -17 15 -12 76 3 39 1 70 -4 70 -5 0 -9 -6 -8
-12 1 -42 -4 -68 -13 -63 -6 4 -8 10 -6 14 3 4 -2 29 -10 56 -8 27 -10 51 -5
54 4 3 12 68 15 143 6 113 12 146 30 184 18 38 22 59 18 110 -4 59 -3 63 19
66 20 3 24 10 26 51 2 26 -1 47 -7 47 -13 0 -32 -38 -27 -53 2 -7 -4 -23 -14
-36 -13 -16 -19 -40 -19 -77 0 -29 -3 -55 -8 -58 -10 -6 -2 267 8 274 9 6 22
79 22 127 0 31 2 34 22 28 45 -14 106 -9 106 8 0 10 11 13 38 11 20 -2 39 -4
42 -4z m-548 -20 c-2 -8 -6 -146 -9 -307 -6 -262 -8 -292 -21 -280 -13 10 -14
9 -7 -2 6 -11 4 -13 -8 -8 -13 5 -15 -2 -13 -41 3 -51 -17 -80 -41 -60 -7 6
-13 7 -13 3 0 -4 12 -18 26 -30 26 -22 37 -80 18 -93 -5 -4 -10 -11 -11 -17
-1 -5 -4 -17 -8 -26 -4 -11 0 -18 14 -22 13 -3 21 -14 22 -29 0 -21 1 -22 9
-3 7 19 9 18 19 -8 16 -41 14 -52 -11 -66 -13 -6 -15 -9 -6 -7 10 3 28 2 40
-3 l22 -8 -22 -5 c-12 -4 -20 -2 -16 3 3 5 0 9 -5 9 -6 0 -11 -4 -11 -8 0 -5
-7 -9 -15 -9 -8 0 -15 4 -15 9 0 5 -4 7 -9 4 -5 -4 -12 13 -16 36 -8 49 -21
69 -39 62 -8 -3 -16 5 -20 18 -4 17 -8 20 -15 10 -7 -11 -9 -11 -14 2 -4 9 -2
16 3 16 6 0 10 7 10 16 0 8 -5 12 -11 8 -6 -3 -4 4 4 17 12 18 14 43 10 104
-7 109 -7 146 0 245 4 47 4 77 1 67 -7 -23 -26 -17 -40 11 -6 12 -14 19 -17
15 -4 -3 -7 3 -7 15 0 12 -4 22 -10 22 -5 0 -10 23 -10 50 0 28 3 50 8 50 4 0
8 14 9 32 1 17 7 36 13 42 5 5 10 20 10 33 0 25 10 29 27 12 8 -8 13 0 18 30
4 22 4 44 2 48 -8 13 16 39 48 50 43 16 111 11 107 -7z m-278 -99 c4 -5 1 -11
-5 -13 -7 -2 -13 -37 -15 -88 -6 -146 -12 -224 -19 -260 -4 -19 -8 -72 -8
-117 0 -53 -4 -80 -10 -76 -6 3 -16 -2 -23 -12 -17 -23 -25 -16 -17 13 3 12
12 22 19 22 11 0 14 19 14 83 0 46 -4 87 -10 93 -11 11 5 166 20 195 4 8 14
50 20 92 12 72 21 90 34 68z m1511 -541 c4 -6 10 -8 15 -5 5 3 11 1 15 -4 6
-11 -29 -33 -39 -24 -3 3 -6 -2 -7 -13 0 -10 -2 -32 -3 -49 -3 -33 13 -77 24
-70 4 3 7 -3 6 -13 -1 -14 10 -18 52 -22 30 -3 56 -2 58 2 3 4 1 8 -3 8 -5 0
-14 10 -21 23 -7 12 5 3 28 -20 30 -32 49 -43 70 -43 38 0 39 -17 3 -26 -16
-4 -40 -15 -55 -26 -39 -27 -134 -57 -150 -47 -7 5 -21 6 -32 3 -12 -4 -16 -2
-12 5 4 6 2 11 -3 11 -6 0 -11 -5 -11 -12 0 -13 -53 44 -126 135 -40 50 -43
58 -28 64 20 8 47 28 78 59 30 29 78 61 101 67 32 8 33 8 40 -3z m904 -114
c14 -3 28 -11 32 -17 5 -8 8 -8 13 0 4 6 12 9 17 6 5 -4 12 1 15 9 3 9 10 14
15 11 9 -6 1 -35 -9 -33 -19 2 -32 -3 -32 -13 0 -8 6 -7 17 2 15 12 16 12 10
-6 -7 -19 -6 -19 7 -2 12 16 16 16 42 2 16 -8 39 -15 52 -15 12 0 22 -5 22
-11 0 -6 9 -9 20 -6 11 3 20 1 20 -4 0 -5 11 -7 24 -3 13 3 33 1 44 -5 17 -9
19 -8 15 9 -4 16 0 20 21 20 14 0 26 -4 26 -9 0 -5 10 -12 23 -15 21 -6 21 -7
5 -20 -21 -16 -22 -23 -5 -29 6 -2 -1 -3 -17 -1 -50 7 -11 -24 54 -42 46 -13
60 -21 64 -40 4 -13 16 -29 29 -35 l22 -11 -22 21 c-26 25 -30 43 -8 35 8 -4
15 -10 15 -15 0 -5 6 -8 13 -7 6 2 11 -2 10 -8 -1 -7 10 -15 24 -19 17 -4 23
-9 15 -14 -9 -5 -7 -13 8 -27 34 -34 48 -43 54 -36 4 3 4 -1 0 -11 -3 -10 -1
-17 5 -17 6 0 11 5 11 10 0 6 7 10 16 10 9 0 12 5 8 12 -5 7 -3 8 6 3 10 -6 9
-11 -5 -22 -13 -8 -14 -13 -5 -13 7 0 11 -3 7 -6 -7 -8 15 -33 25 -28 4 2 9
-5 13 -16 5 -16 9 -17 19 -7 8 6 11 19 8 27 -5 13 -3 13 11 1 15 -12 17 -11
17 2 0 23 18 31 37 15 12 -9 15 -10 9 0 -4 7 -1 15 8 18 9 3 16 10 16 16 0 5
-4 7 -8 4 -4 -2 -14 -1 -22 5 -13 7 -12 9 1 9 9 0 22 7 29 15 7 8 17 12 24 9
6 -3 2 2 -9 11 l-20 17 20 -4 c26 -5 43 11 38 37 -3 18 -3 18 8 -2 11 -21 13
-21 41 -7 16 8 34 12 41 7 9 -5 9 -3 -1 9 -6 8 -23 14 -37 12 -14 -1 -25 2
-25 7 0 5 3 9 8 10 4 0 15 2 24 4 10 2 21 -1 24 -6 3 -6 12 -2 21 8 8 10 11
11 7 3 -6 -12 -4 -13 6 -3 10 9 17 9 26 2 17 -14 -2 -69 -24 -69 -11 0 -9 -5
8 -13 27 -14 43 -64 17 -54 -11 4 -13 0 -10 -14 3 -10 9 -19 13 -19 4 0 7 -10
6 -22 -1 -13 7 -32 16 -42 10 -11 15 -22 12 -25 -3 -3 -9 1 -13 8 -10 16 -16
7 -26 -37 -4 -18 -13 -36 -21 -39 -16 -6 -19 -39 -4 -48 6 -3 10 -17 10 -29 0
-15 7 -26 20 -29 11 -3 19 -11 17 -19 -2 -7 -2 -10 0 -5 9 15 24 6 50 -34 24
-37 26 -43 14 -75 -7 -20 -10 -38 -8 -41 3 -3 2 -16 -4 -30 -6 -16 -6 -22 1
-18 6 3 10 1 10 -4 0 -6 -4 -11 -10 -11 -5 0 -7 -7 -4 -15 4 -9 0 -15 -9 -15
-10 0 -14 -7 -10 -22 4 -21 4 -21 -9 2 -10 17 -11 28 -4 33 7 5 5 7 -4 4 -8
-2 -14 -11 -14 -20 1 -10 -4 -13 -15 -10 -9 4 -13 3 -9 -2 4 -4 1 -14 -7 -21
-8 -8 -12 -21 -9 -28 3 -8 1 -17 -5 -21 -6 -3 -9 0 -6 8 3 7 -3 21 -14 31 -11
10 -18 22 -15 27 2 4 -10 15 -28 24 -26 12 -29 13 -15 1 16 -12 17 -18 7 -37
-11 -20 -13 -20 -22 -6 -5 10 -7 21 -4 26 11 18 -28 22 -41 5 -7 -10 -13 -12
-13 -6 0 7 -6 12 -14 12 -8 0 -24 12 -35 28 l-20 27 -1 -40 c0 -23 5 -46 11
-52 7 -7 6 -12 -5 -16 -11 -5 -16 -1 -16 13 0 10 -12 27 -27 38 -28 19 -28 19
-48 -1 -11 -11 -15 -17 -9 -14 7 4 12 -3 12 -20 l0 -26 -14 24 c-7 13 -13 36
-14 51 0 15 -4 29 -9 32 -13 8 -20 -28 -9 -48 10 -19 -2 -22 -20 -4 -9 9 -11
7 -7 -10 2 -12 0 -24 -5 -27 -5 -3 -7 -12 -4 -20 4 -9 -1 -13 -15 -12 -11 0
-18 3 -16 6 3 2 0 10 -6 17 -6 7 -15 25 -20 41 l-9 28 4 -27 c5 -41 -9 -34
-20 10 l-9 37 -15 -33 c-19 -42 -53 -41 -58 1 -2 18 -7 25 -15 20 -7 -4 -6 3
3 17 13 22 17 45 10 60 -1 3 -4 15 -5 27 -2 18 2 20 24 16 14 -2 33 -11 43
-19 9 -9 28 -17 42 -18 22 -3 25 0 21 15 -4 11 -2 19 5 19 8 0 8 6 0 20 -8 15
-8 18 3 14 8 -3 17 2 21 11 4 11 2 14 -7 10 -6 -4 -1 3 13 14 25 21 25 21 5
37 -11 8 -30 13 -42 11 -13 -2 -20 0 -16 6 4 6 -4 8 -20 5 -15 -3 -24 -2 -22
3 10 15 -7 38 -23 32 -9 -3 -23 -7 -31 -9 -11 -4 -11 -8 3 -22 20 -23 21 -33
1 -26 -8 4 -12 11 -9 18 3 6 -1 3 -9 -6 -8 -10 -19 -18 -25 -18 -6 0 -13 -6
-16 -12 -3 -9 -8 -8 -16 5 -6 9 -18 17 -26 17 -8 0 -17 13 -21 31 -5 25 -8 28
-15 15 -5 -9 -13 -14 -17 -12 -4 3 -14 -6 -21 -19 -7 -14 -17 -25 -22 -25 -11
0 24 -49 35 -50 5 0 6 4 3 9 -4 5 3 7 14 4 11 -3 17 -9 14 -14 -3 -5 2 -6 10
-3 8 3 24 -4 35 -15 12 -12 24 -21 28 -20 4 0 9 -5 11 -11 3 -7 -5 -9 -24 -4
-18 5 -25 3 -20 -4 3 -6 -1 -18 -10 -26 -14 -15 -14 -16 0 -17 37 -3 41 -5 38
-24 -2 -11 -4 -25 -4 -32 -1 -7 -5 -10 -10 -7 -4 3 -8 0 -8 -6 0 -6 -10 -8
-27 -4 -34 8 -55 23 -47 35 3 5 0 10 -5 10 -14 2 -29 6 -36 9 -3 1 -8 3 -12 4
-5 1 -12 4 -18 7 -5 4 -25 10 -44 14 -25 5 -30 10 -20 16 9 6 4 7 -15 3 -25
-6 -28 -4 -23 10 4 9 3 15 -2 11 -14 -8 -42 6 -34 18 3 6 1 7 -5 3 -13 -8 -52
23 -52 42 0 7 -4 11 -10 7 -5 -3 -17 20 -26 52 -9 32 -20 62 -25 67 -5 6 -9
20 -9 32 0 12 -5 24 -11 26 -6 2 -12 15 -12 30 -1 14 -4 24 -6 22 -9 -8 -30
18 -25 31 3 7 -4 19 -16 25 -11 6 -18 15 -15 20 3 6 0 7 -8 4 -19 -7 -32 12
-16 22 8 5 9 3 4 -7 -8 -12 -6 -12 8 0 9 7 14 17 11 23 -3 5 -12 4 -20 -3 -11
-9 -19 -8 -36 7 -12 11 -18 13 -14 7 5 -9 2 -11 -8 -7 -9 3 -14 9 -12 13 5 8
7 8 -159 11 -71 1 -124 5 -117 7 10 4 9 9 -4 24 -9 10 -21 16 -25 13 -17 -10
-9 9 8 21 11 8 25 10 39 5 16 -6 24 -5 28 5 7 18 -7 27 -31 19 -15 -5 -16 -4
-3 5 13 10 13 12 0 21 -11 7 -11 10 -2 10 7 0 10 5 7 10 -3 6 1 10 9 10 9 0
16 4 16 9 0 5 11 8 24 5 14 -2 28 2 33 8 10 17 11 58 1 58 -4 0 -8 -5 -8 -11
0 -6 -7 -3 -16 5 -8 9 -20 16 -25 16 -6 0 -8 4 -5 9 3 5 -1 12 -10 15 -8 3
-12 2 -9 -4 3 -6 1 -10 -4 -10 -6 0 -11 6 -11 14 0 8 -6 16 -12 19 -7 2 2 4
20 5 18 0 30 -3 28 -7 -3 -4 15 -5 39 -1 24 4 50 3 57 -1 19 -12 30 -11 22 3
-5 8 -2 9 9 5 9 -3 19 -2 22 3 4 6 17 10 30 10 13 0 26 4 29 9 6 9 154 7 195
-3z m-1131 -62 c1 -1 -2 -13 -7 -28 -12 -29 -31 -35 -31 -8 0 9 -9 23 -20 30
-17 11 -20 9 -26 -13 -3 -14 -15 -30 -26 -36 -13 -7 -17 -16 -13 -29 3 -11 2
-28 -4 -37 -9 -16 -10 -16 -11 -2 0 20 -22 30 -39 19 -10 -6 -9 -13 4 -34 13
-20 21 -24 34 -16 15 7 22 1 43 -40 l25 -48 43 19 c33 15 41 22 32 31 -7 7
-12 17 -12 23 0 5 7 1 15 -9 11 -15 17 -16 28 -7 8 6 23 8 32 4 14 -5 17 -3
13 9 -4 8 -3 20 2 27 5 9 9 5 14 -13 5 -22 12 -26 44 -27 l37 0 -23 -16 c-25
-17 -244 -94 -251 -87 -2 2 2 10 9 19 10 13 10 18 -2 33 -9 9 -14 22 -11 28 2
6 -6 19 -18 30 l-22 19 6 -35 c3 -19 8 -43 12 -52 4 -10 3 -18 -2 -18 -14 0
-55 59 -58 83 -1 12 -6 30 -10 40 -8 19 -51 42 -72 38 -7 -1 -13 5 -13 14 0
10 19 24 48 36 26 11 65 30 87 42 50 26 105 37 125 23 8 -6 16 -11 18 -12z
m694 -21 c-4 -1 -20 -4 -35 -7 -25 -6 -27 -9 -22 -40 6 -30 4 -35 -22 -46 -23
-10 -29 -19 -25 -36 4 -22 1 -23 -69 -26 l-74 -3 55 -22 c30 -12 49 -22 42
-22 -22 -1 -3 -20 34 -36 19 -8 47 -24 61 -35 21 -16 22 -20 8 -20 -10 0 -23
7 -30 16 -14 20 -115 38 -130 23 -7 -7 -5 -13 7 -20 27 -15 49 -40 43 -49 -3
-5 -2 -10 2 -13 5 -2 1 -1 -7 2 -8 3 -60 7 -115 9 -108 4 -180 -11 -171 -35 3
-7 1 -13 -5 -13 -6 0 -9 -6 -6 -14 8 -21 1 -23 -48 -16 -27 4 -45 3 -45 -3 0
-6 -18 -7 -46 -3 -41 5 -45 4 -34 -9 9 -11 22 -14 48 -9 22 4 33 3 29 -3 -4
-6 2 -18 12 -27 16 -15 19 -15 24 -1 4 9 19 15 37 15 21 0 29 4 24 12 -5 8 0
9 14 6 12 -4 20 -2 16 3 -5 8 35 29 56 29 4 0 6 -19 4 -42 -4 -27 -1 -44 8
-49 16 -11 57 -12 43 -1 -14 10 -14 53 -1 49 6 -2 13 -12 14 -23 2 -10 11 -25
20 -33 16 -13 16 -13 -1 -8 -9 4 -29 1 -44 -6 -21 -9 -27 -9 -31 1 -4 14 -22
17 -22 4 0 -5 10 -14 23 -19 22 -11 22 -11 -5 -18 -16 -4 -28 -11 -28 -15 0
-5 -10 -10 -22 -13 -24 -4 -19 -7 27 -22 17 -5 21 -45 5 -45 -5 0 -10 -7 -10
-15 0 -8 -9 -15 -20 -15 -23 0 -26 -10 -8 -28 9 -9 8 -12 -4 -12 -11 0 -15 -6
-11 -18 6 -25 68 -29 77 -5 8 19 4 24 -22 26 -12 0 -18 6 -15 14 3 7 10 10 15
7 14 -9 58 17 58 34 0 8 -6 12 -15 8 -8 -3 -15 -4 -15 -2 0 3 -3 12 -6 21 -7
16 15 18 27 2 9 -12 39 3 39 19 0 8 -4 14 -10 14 -5 0 -10 4 -10 8 0 7 18 11
63 13 9 0 17 4 17 10 0 5 -8 9 -17 9 -10 0 -25 5 -33 11 -12 8 -10 10 9 5 16
-3 29 1 36 11 10 14 14 13 33 -7 12 -13 25 -21 28 -17 4 3 16 0 26 -8 11 -7
27 -11 35 -8 8 3 13 0 11 -8 -2 -8 3 -13 10 -11 6 1 20 -6 30 -15 9 -10 33
-31 52 -47 19 -15 27 -26 18 -22 -10 3 -18 1 -18 -4 0 -4 16 -14 35 -20 19 -6
35 -16 35 -22 0 -6 6 -8 14 -5 8 3 17 -1 20 -8 3 -8 24 -24 48 -36 55 -28 69
-39 62 -51 -3 -5 -10 -5 -17 0 -7 5 -23 12 -36 15 -18 4 -21 3 -12 -6 6 -6 11
-19 11 -29 0 -10 6 -18 13 -18 7 0 23 -8 36 -17 l24 -16 -22 -9 c-13 -4 -19
-13 -15 -19 4 -8 0 -8 -15 0 -24 13 -29 26 -6 17 23 -8 18 11 -7 28 -24 17
-40 13 -32 -9 4 -10 -1 -12 -18 -8 -20 4 -19 2 7 -14 17 -11 36 -27 43 -36 12
-14 11 -15 -16 -7 -17 4 -33 6 -36 2 -3 -3 -6 0 -6 6 0 7 -8 12 -17 12 -14 -1
-12 -5 10 -23 15 -13 27 -28 27 -34 0 -7 8 -17 18 -23 15 -10 15 -11 -3 -5
-11 4 -24 7 -30 8 -5 1 -13 6 -17 11 -8 12 -58 19 -58 9 0 -5 9 -16 20 -26 11
-9 20 -20 20 -24 0 -10 -56 -10 -66 0 -11 11 -34 8 -34 -4 0 -16 31 -38 53
-39 9 0 17 -4 17 -8 0 -5 12 -14 26 -21 15 -6 25 -14 22 -16 -6 -6 -156 71
-175 90 -17 18 -33 19 -33 4 0 -8 -4 -8 -13 -1 -7 6 -27 9 -45 6 -20 -3 -32
-1 -32 6 0 6 6 8 13 5 6 -4 3 0 -8 9 -11 8 -27 22 -36 31 -19 18 -31 9 -48
-38 -9 -22 -7 -28 9 -37 10 -5 28 -10 39 -10 12 0 21 -4 21 -10 0 -5 -6 -10
-12 -10 -7 0 6 -18 30 -40 23 -22 42 -49 42 -60 0 -24 -4 -25 -41 -3 -16 10
-29 25 -29 35 0 10 -7 18 -16 18 -8 0 -12 5 -9 10 4 6 -7 10 -24 10 -23 0 -31
5 -31 18 -1 21 -23 52 -39 52 -6 0 -10 -3 -10 -7 4 -23 -3 -33 -21 -33 -13 0
-20 -7 -20 -20 0 -13 -5 -18 -15 -14 -30 12 -14 -5 41 -41 30 -20 58 -35 60
-32 3 3 -11 15 -30 27 -38 23 -48 37 -19 26 9 -4 20 -1 24 6 6 9 14 7 32 -10
19 -18 26 -19 37 -9 10 9 11 9 6 -1 -4 -7 -1 -15 8 -18 9 -3 13 -10 10 -15 -3
-5 2 -16 10 -25 23 -22 20 -44 -4 -39 -13 2 -23 -2 -27 -11 -10 -27 -46 -33
-72 -13 -13 11 -31 19 -40 19 -12 0 -10 -5 9 -19 20 -16 22 -22 11 -35 -7 -8
-10 -19 -7 -24 3 -5 -6 -7 -20 -4 -16 3 -30 -1 -36 -9 -8 -12 -9 -11 -5 1 4
16 -15 40 -32 40 -12 0 -41 -52 -41 -75 0 -8 7 -15 15 -15 8 0 15 -4 15 -9 0
-5 14 -14 30 -21 21 -9 30 -19 30 -36 0 -15 -6 -24 -16 -24 -8 0 -12 -4 -9
-10 3 -5 17 -10 31 -10 14 0 24 -6 24 -15 0 -11 -5 -12 -24 -5 -20 7 -23 6
-19 -8 3 -11 16 -18 40 -19 20 -1 40 -8 44 -15 14 -21 -23 -23 -39 -2 -13 18
-15 18 -38 -11 -19 -22 -24 -25 -22 -11 2 13 -4 20 -22 22 -14 3 -41 10 -60
18 -19 7 -54 17 -78 21 -37 6 -42 10 -36 27 4 15 2 19 -7 16 -8 -3 -26 1 -40
8 -16 8 -30 9 -40 3 -12 -7 -12 -9 1 -9 12 0 13 -2 1 -9 -11 -7 -8 -11 10 -16
l24 -8 -23 -8 c-24 -9 -52 1 -122 41 -19 11 -44 20 -55 20 -11 0 -31 7 -44 16
-22 16 -24 16 -33 0 -12 -21 -34 -21 -47 1 -9 17 -10 17 -28 0 -19 -17 -43
-23 -43 -11 0 3 11 19 25 36 30 36 32 58 5 58 -11 0 -20 -7 -20 -15 0 -19 -21
-65 -30 -65 -10 0 -23 40 -20 64 4 37 72 129 116 157 17 10 41 19 53 19 12 0
21 6 21 15 0 8 5 15 11 15 6 0 8 -9 4 -20 -4 -12 -2 -20 5 -20 17 0 55 51 53
70 -2 9 0 10 3 3 8 -19 19 -16 66 13 l42 27 -40 20 c-21 11 -40 21 -42 22 -6
6 59 93 74 99 8 3 12 11 9 17 -4 6 -14 8 -22 5 -28 -11 -11 87 26 145 22 37
31 62 31 95 0 24 1 44 3 44 1 0 33 -11 71 -25 38 -14 81 -25 97 -25 32 0 59
-23 59 -52 0 -11 5 -18 12 -16 17 6 17 46 0 53 -10 4 -13 14 -8 35 5 28 4 30
-27 30 -40 0 -170 46 -262 92 -77 39 -186 73 -207 65 -7 -3 -4 -6 8 -6 12 -1
24 -8 28 -16 3 -8 16 -20 28 -25 25 -11 48 -24 92 -53 16 -11 46 -20 67 -20
21 0 36 -4 33 -9 -3 -4 -9 -6 -13 -4 -11 7 -66 -52 -58 -61 4 -3 7 -1 7 5 0 7
5 12 10 12 23 0 7 -31 -32 -63 -62 -49 -89 -55 -37 -8 48 44 50 57 3 16 -29
-25 -145 -75 -174 -75 -8 0 -40 10 -70 21 -53 21 -142 28 -537 42 -24 1 -43 5
-43 10 0 11 -48 8 -55 -3 -5 -8 -11 -7 -20 0 -8 7 -19 9 -25 5 -23 -14 48 -45
113 -51 15 -1 29 -3 30 -5 29 -53 39 -64 60 -67 21 -3 24 0 20 16 -4 16 0 18
26 14 17 -2 31 -5 31 -7 0 -1 -9 -12 -20 -25 -11 -13 -20 -27 -20 -32 0 -11
32 -10 50 2 12 8 13 12 2 19 -12 7 -12 12 -1 30 12 17 23 21 72 21 36 0 56 4
52 10 -10 15 25 12 41 -4 11 -11 11 -16 1 -19 -6 -3 -2 -6 11 -6 17 -1 22 -7
22 -26 0 -14 5 -25 10 -25 6 0 10 9 10 20 0 14 7 20 21 20 14 0 19 -5 16 -14
-4 -11 -1 -13 11 -9 9 3 5 -4 -10 -16 -33 -27 -38 -62 -8 -56 14 3 20 -2 20
-15 0 -15 -13 -23 -57 -35 -116 -32 -198 -81 -186 -110 3 -8 0 -15 -7 -15 -6
0 -8 5 -5 10 4 7 -2 9 -17 5 -31 -7 -61 18 -64 53 -1 15 -9 49 -18 76 -13 38
-14 51 -5 63 18 21 1 31 -61 37 -99 11 -134 18 -205 43 -140 50 -279 140 -385
247 -30 31 -63 56 -75 56 -11 0 -29 7 -39 15 -28 21 -45 18 -20 -4 12 -9 24
-26 26 -37 2 -10 18 -28 35 -39 18 -11 31 -25 29 -31 -2 -6 5 -16 16 -23 11
-7 17 -15 14 -18 -3 -4 -1 -12 5 -20 6 -7 8 -13 4 -13 -4 0 -2 -7 5 -15 23
-28 -54 -10 -102 23 -104 71 -178 186 -178 275 0 28 -8 64 -20 87 -11 22 -17
40 -12 40 8 0 32 42 32 55 0 2 -8 2 -17 -2 -15 -5 -14 -2 3 17 l22 22 30 -22
c27 -20 29 -26 21 -49 -9 -24 -8 -25 6 -7 14 18 16 17 62 -25 27 -25 76 -64
109 -86 74 -51 223 -127 231 -119 4 3 0 6 -7 6 -7 0 -11 2 -8 5 2 3 61 -13
129 -35 157 -51 255 -64 354 -51 187 26 631 155 919 267 170 66 257 112 316
164 39 35 119 70 159 70 6 0 11 5 11 10 0 6 -9 10 -20 10 -14 0 -20 7 -20 21
0 12 5 19 13 16 6 -2 21 0 32 6 37 20 98 23 127 7 15 -8 24 -16 20 -17z
m-1800 -237 c44 -23 47 -38 14 -71 -13 -13 -22 -26 -19 -29 6 -5 -15 -46 -34
-65 -12 -12 -13 -9 -7 24 5 27 3 40 -7 46 -10 6 -7 9 11 9 23 1 23 2 -10 19
-19 11 -38 17 -42 14 -5 -2 -8 1 -8 7 0 6 -4 9 -9 6 -13 -8 -4 63 10 80 10 13
15 12 38 -2 14 -10 42 -26 63 -38z m1918 -49 c0 -4 15 -5 33 -2 25 5 37 2 51
-14 19 -21 19 -21 -5 -21 -14 0 -30 5 -37 12 -9 9 -13 7 -18 -6 -9 -23 12 -44
27 -29 13 13 36 6 62 -18 14 -13 17 -26 13 -52 -5 -32 -2 -38 27 -59 17 -12
34 -26 36 -31 1 -4 12 -17 24 -27 11 -11 17 -23 14 -27 -4 -3 -7 -1 -7 7 0 10
-3 10 -15 0 -12 -10 -15 -10 -15 3 0 9 -13 17 -35 21 -31 6 -50 26 -25 26 6 0
10 7 10 15 0 8 -6 12 -14 9 -8 -3 -19 3 -26 16 l-11 21 -26 -25 c-14 -15 -23
-29 -19 -33 4 -4 11 -1 16 7 8 13 10 12 10 -2 0 -10 -7 -18 -15 -18 -8 0 -15
-5 -15 -12 0 -9 -3 -9 -12 0 -7 7 -17 12 -22 12 -6 0 -4 -5 4 -10 13 -8 12
-10 -2 -10 -28 0 -21 -18 13 -36 35 -18 69 -26 69 -17 0 4 -9 16 -20 28 l-19
21 27 -1 c16 0 39 -12 57 -28 27 -26 30 -27 36 -10 7 16 9 16 9 -2 0 -3 9 -19
20 -37 57 -95 60 -110 21 -88 -16 8 -21 8 -21 -1 0 -8 -4 -8 -15 1 -9 7 -17
11 -20 9 -11 -11 16 -82 43 -115 26 -32 29 -40 19 -58 -6 -12 -10 -24 -9 -28
1 -5 -2 -8 -8 -8 -14 0 -12 12 4 36 13 19 11 25 -27 74 -23 30 -57 69 -74 86
-18 18 -33 37 -33 43 0 6 -9 11 -19 11 -11 0 -23 5 -26 11 -4 6 -13 8 -21 5
-8 -3 -11 0 -8 8 3 7 -2 19 -11 26 -8 7 -15 18 -15 25 0 15 -34 47 -42 39 -7
-7 -53 38 -61 60 -5 13 -14 16 -41 10 -32 -5 -34 -4 -29 15 3 12 1 21 -6 21
-6 0 -11 -4 -11 -10 0 -5 -9 -10 -20 -10 -11 0 -20 -4 -20 -10 0 -5 4 -10 9
-10 5 0 23 -12 40 -26 17 -14 35 -23 41 -19 14 8 61 -25 53 -38 -4 -6 0 -8 11
-4 9 4 14 3 11 -2 -3 -5 -1 -12 5 -16 16 -10 12 -25 -5 -19 -8 4 -12 11 -8 18
4 7 1 6 -9 -2 -12 -10 -20 -9 -41 8 -14 11 -30 20 -36 20 -6 0 -11 6 -11 14 0
17 -54 40 -97 41 -37 1 -103 62 -78 71 18 7 61 -21 46 -31 -15 -8 -4 -25 16
-25 11 0 14 6 10 21 -4 16 -2 19 10 15 21 -8 77 50 69 71 -4 11 -2 13 9 10 8
-4 17 -2 20 3 12 19 26 10 15 -9 -13 -25 -13 -41 1 -41 6 0 9 6 6 14 -4 10 3
13 26 11 18 -1 38 3 45 8 8 6 12 6 12 -2 0 -6 5 -11 10 -11 19 0 10 21 -12 30
-21 8 -10 15 16 11 5 -1 6 5 3 13 -4 9 -1 18 5 22 7 5 8 2 3 -7 -6 -10 -5 -11
4 -3 7 6 13 20 13 30 2 19 38 29 38 11z m-2715 -126 c-4 -12 -2 -12 9 2 12 15
14 15 19 2 10 -24 -37 -43 -60 -23 -8 6 -18 6 -31 -1 -11 -6 -23 -7 -27 -3 -3
4 -5 0 -3 -8 3 -16 81 -40 110 -35 10 2 16 0 13 -6 -4 -5 -2 -9 4 -9 5 0 15 8
20 18 9 15 10 14 11 -6 0 -13 -4 -21 -8 -18 -4 2 -14 1 -22 -4 -9 -5 -20 -4
-29 3 -10 8 -13 8 -8 1 4 -8 -8 -14 -35 -18 -23 -4 -45 -12 -49 -17 -3 -6 -18
-12 -32 -12 -14 -1 -23 -6 -19 -11 3 -5 -2 -6 -12 -3 -9 4 -15 3 -12 -1 7 -12
-52 -44 -66 -36 -6 4 -8 3 -5 -3 4 -6 0 -16 -8 -23 -8 -7 -15 -9 -15 -4 0 5
-4 3 -9 -5 -7 -10 -13 -11 -31 -1 -13 7 -20 8 -16 2 3 -6 2 -14 -4 -17 -6 -4
-8 -15 -5 -25 4 -13 -1 -22 -15 -30 -11 -6 -20 -17 -20 -24 0 -8 -6 -19 -14
-25 -8 -7 -22 -28 -31 -48 -13 -27 -19 -32 -27 -22 -7 10 -8 8 -3 -8 4 -15 0
-25 -13 -32 -11 -6 -22 -18 -26 -28 -5 -15 -4 -15 9 1 8 11 15 16 15 12 0 -14
-34 -66 -43 -66 -4 0 -5 -4 -2 -10 4 -6 -1 -7 -12 -3 -14 5 -16 3 -6 -7 9 -10
8 -18 -4 -36 -8 -13 -20 -21 -26 -17 -6 4 -8 0 -4 -10 7 -17 -15 -41 -28 -29
-5 4 -5 1 -1 -6 4 -7 -6 -26 -25 -47 -25 -26 -36 -32 -46 -23 -15 12 -18 32
-3 23 6 -3 10 -2 10 3 0 5 11 15 25 22 13 7 22 17 19 21 -4 7 29 31 37 26 2
-1 -1 3 -8 9 -11 9 -10 14 1 24 9 6 21 8 27 4 8 -4 9 -3 5 4 -4 7 -3 12 2 12
6 0 9 11 8 26 -1 20 -5 24 -21 20 -11 -3 -23 -6 -27 -6 -5 0 -8 -11 -8 -24 0
-13 -7 -29 -16 -36 -8 -8 -14 -9 -13 -4 1 5 0 12 -1 17 -3 9 -7 24 -9 35 -1 4
-6 0 -12 -8 -9 -13 -10 -13 -6 0 2 8 11 14 20 14 9 -1 18 5 21 13 4 9 2 11 -5
7 -7 -4 -10 -1 -7 7 3 8 10 13 16 12 6 -2 5 8 -3 24 -12 22 -11 28 1 41 21 21
1 41 -21 22 -14 -12 -18 -11 -26 1 -8 10 -9 8 -4 -8 4 -16 0 -25 -15 -33 -11
-6 -20 -8 -20 -4 0 4 -10 -5 -21 -20 -12 -16 -27 -25 -36 -22 -8 3 -11 2 -8
-4 8 -13 -41 -43 -57 -34 -7 4 -6 -1 4 -11 10 -11 21 -14 30 -9 7 5 21 7 32 5
12 -2 16 1 11 10 -5 8 -4 10 4 5 17 -11 1 -28 -21 -23 -14 4 -18 1 -14 -8 4
-13 -21 -28 -49 -30 -5 0 -10 -6 -10 -14 0 -8 -10 -16 -22 -17 -13 -2 -23 0
-23 4 0 17 14 21 28 9 13 -10 14 -9 8 1 -10 17 18 43 41 37 17 -5 -2 4 -57 28
-14 6 -33 12 -43 13 -14 1 -15 -1 -5 -15 20 -26 22 -27 15 -8 -8 21 1 21 27 2
15 -11 16 -15 5 -15 -8 0 -24 -7 -35 -16 -10 -8 -12 -13 -4 -9 8 4 6 -1 -4 -9
-16 -13 -17 -16 -4 -16 25 0 30 -28 6 -32 -12 -2 -22 -11 -24 -21 -4 -26 -14
-34 -14 -12 0 17 -1 17 -18 2 -15 -13 -21 -14 -31 -4 -10 9 -12 9 -9 -3 2 -10
-3 -14 -15 -12 -26 4 -87 -28 -87 -47 0 -14 -2 -14 -10 -1 -5 8 -10 10 -10 4
0 -6 7 -17 15 -24 9 -7 12 -17 7 -24 -4 -6 -7 -21 -6 -33 0 -12 -2 -20 -7 -18
-4 3 -10 1 -14 -5 -4 -6 -12 -7 -18 -3 -7 4 -6 0 2 -10 15 -18 26 -23 16 -7
-3 6 -2 10 2 10 5 0 13 -8 20 -18 9 -16 8 -21 -9 -33 -11 -8 -24 -25 -29 -38
-5 -13 -12 -21 -15 -18 -3 3 -1 14 4 23 8 15 5 24 -16 43 -40 37 -69 36 -87
-2 -8 -18 -12 -22 -9 -9 3 12 1 22 -5 22 -6 0 -11 5 -11 11 0 6 6 9 12 7 18
-6 34 12 42 47 3 17 8 35 9 42 2 7 6 15 10 19 3 4 -3 14 -14 23 -15 12 -18 22
-12 36 10 24 33 31 44 13 14 -22 11 -90 -3 -83 -7 4 -5 0 5 -9 23 -18 48 -11
40 11 -5 12 -3 14 7 8 9 -5 11 -4 6 3 -4 7 -4 18 0 24 11 18 13 50 3 73 -7 18
-8 18 -8 1 -1 -12 -6 -16 -15 -13 -10 4 -13 1 -9 -9 3 -7 1 -14 -5 -14 -11 0
-20 19 -18 35 0 6 4 9 8 8 5 -2 7 3 5 10 -1 6 4 11 12 9 11 -3 12 0 2 11 -12
15 7 21 96 30 11 1 19 6 16 11 -3 5 8 7 26 4 17 -2 29 -2 26 0 -8 8 48 33 62
27 9 -3 11 0 7 6 -4 7 -21 9 -42 5 -35 -5 -35 -5 -13 10 12 9 33 17 46 18 30
1 26 31 -5 30 -21 -1 -22 0 -5 12 10 7 21 11 25 9 5 -3 11 2 14 11 4 9 13 14
21 10 8 -3 14 0 12 7 -1 7 3 11 10 10 12 -3 38 35 30 43 -2 3 -36 -11 -74 -31
-74 -37 -93 -40 -105 -15 -5 12 -7 11 -7 -3 -1 -12 -5 -16 -13 -10 -22 13 -46
13 -60 0 -19 -18 -34 -15 -56 10 -10 13 -21 21 -23 19 -2 -2 -21 -6 -42 -9
-25 -4 -35 -2 -31 5 4 5 0 15 -7 20 -11 8 -11 9 2 5 17 -6 59 18 59 33 0 5 -9
11 -19 15 -13 4 -17 12 -14 25 4 16 0 20 -17 20 -23 0 -23 0 -4 22 12 13 13
18 4 13 -13 -8 -13 -7 0 10 14 17 13 18 -8 13 -19 -5 -21 -4 -11 8 6 7 15 11
20 8 5 -3 6 2 3 10 -3 9 -1 16 5 16 6 0 8 6 5 13 -2 7 3 14 13 15 84 9 132 8
152 -2 17 -10 33 -10 62 -2 47 12 57 3 51 -47 -3 -26 -11 -36 -35 -47 -18 -7
-40 -13 -50 -12 -24 2 -22 -24 3 -31 14 -3 20 0 20 10 0 12 3 13 13 4 11 -8
18 -6 32 9 11 12 25 18 34 15 8 -3 12 -3 9 1 -11 10 15 31 33 27 10 -3 26 0
36 7 16 10 15 10 -7 5 -24 -5 -24 -5 3 10 16 9 38 18 50 19 12 2 29 6 37 9 8
3 34 11 58 17 27 7 40 15 36 22 -4 7 -3 8 5 4 19 -12 113 14 107 29 -6 16 80
30 116 20 14 -4 18 -3 10 2 -20 15 129 71 171 64 9 -1 20 4 23 12 8 22 91 42
177 43 39 0 47 -2 42 -15z m8 -201 c18 -17 20 -24 9 -40 -19 -31 -14 -35 8 -7
11 14 20 30 20 36 0 6 7 8 15 5 9 -4 15 -1 15 7 0 8 6 4 15 -8 8 -11 25 -20
38 -20 13 0 40 -17 62 -38 37 -35 40 -36 45 -16 5 20 6 20 28 6 23 -17 30 -37
11 -32 -6 1 -13 -3 -16 -9 -2 -6 9 -14 24 -17 33 -6 44 0 23 13 -15 10 -10 13
25 13 45 0 54 -4 49 -18 -4 -8 -1 -15 5 -15 6 0 11 7 11 15 0 11 5 12 25 5 25
-10 58 -4 51 9 -3 4 9 8 25 9 16 1 29 -2 29 -8 0 -6 25 -21 55 -35 30 -13 55
-29 55 -36 0 -6 -7 -8 -15 -5 -8 3 -22 9 -32 13 -11 4 -14 3 -9 -5 4 -7 2 -12
-4 -12 -6 0 -8 -6 -4 -12 4 -7 -2 -4 -14 6 -12 11 -22 14 -22 9 0 -6 7 -16 15
-23 20 -17 19 -31 -2 -23 -16 6 -17 5 -3 -11 8 -11 16 -14 18 -7 2 6 9 8 14 5
7 -4 8 -2 4 4 -5 8 2 12 19 12 15 0 24 4 20 10 -3 6 1 7 9 4 9 -3 16 -15 16
-26 0 -13 -4 -17 -12 -11 -7 4 -5 -5 5 -20 17 -26 17 -27 0 -28 -17 -1 -17 -2
-1 -6 16 -4 38 -57 38 -92 0 -11 -3 -11 -15 -1 -13 11 -19 9 -35 -8 -27 -28
-25 -36 11 -66 17 -14 25 -26 18 -26 -7 0 -32 21 -56 46 -24 26 -43 42 -43 37
0 -6 7 -16 15 -23 21 -17 19 -30 -5 -30 -11 0 -20 5 -20 10 0 6 -6 10 -14 10
-7 0 -19 7 -26 15 -7 9 -20 13 -28 10 -11 -4 -13 0 -9 15 3 14 -1 24 -14 31
-11 5 -17 14 -14 19 5 8 -48 40 -66 40 -4 0 -6 -9 -4 -20 5 -24 2 -24 -36 -4
-38 19 -42 16 -24 -19 14 -28 8 -36 -13 -15 -6 6 -15 8 -19 4 -4 -4 -1 -11 6
-15 10 -6 10 -10 1 -16 -6 -4 -19 0 -28 8 -9 8 -37 21 -62 27 -25 7 -56 20
-70 29 -14 10 -33 21 -42 24 -10 3 -31 25 -48 48 -30 42 -40 46 -19 7 19 -35
2 -31 -24 7 l-25 37 -7 -33 c-15 -67 -12 -112 8 -132 10 -10 16 -22 12 -25 -3
-4 -15 4 -25 18 -22 28 -27 111 -10 156 11 28 -3 59 -22 48 -5 -3 -5 -11 2
-19 14 -17 3 -66 -19 -84 -12 -10 -13 -15 -3 -18 7 -3 12 -22 12 -46 0 -49 8
-64 41 -81 30 -14 52 -60 44 -86 -4 -11 -10 -18 -14 -16 -4 3 -13 1 -21 -4
-12 -8 -12 -11 1 -27 19 -22 43 -75 40 -87 -3 -13 30 -46 47 -46 12 0 12 3 2
15 -10 12 -10 15 4 15 9 0 16 -5 16 -10 0 -6 15 -19 33 -30 24 -15 27 -20 13
-20 -18 0 -18 -1 -1 -20 10 -11 26 -22 36 -25 11 -4 19 -15 19 -26 0 -10 5
-19 10 -19 6 0 10 4 10 10 0 5 8 7 18 3 14 -5 13 -3 -3 10 -17 14 -17 16 -4
17 23 0 32 -27 12 -38 -10 -6 -12 -12 -5 -16 6 -3 14 -2 17 4 4 6 14 1 25 -12
15 -19 20 -20 33 -10 11 9 17 10 22 2 11 -18 -3 -40 -27 -41 -22 0 -22 -1 -3
-9 11 -5 32 -9 47 -9 15 -1 29 -5 32 -10 5 -8 -167 -9 -184 -1 -11 5 -67 -2
-97 -11 -25 -8 -37 -7 -58 7 -22 14 -31 15 -46 6 -27 -17 -31 -15 -25 11 3 12
3 16 0 10 -8 -18 -25 -16 -18 2 4 8 1 15 -5 15 -6 0 -28 16 -50 35 -21 19 -45
35 -53 35 -35 0 -54 -60 -28 -89 17 -21 101 -71 153 -92 30 -12 33 -21 13 -38
-11 -9 -15 -8 -20 5 -4 9 -12 14 -22 10 -8 -3 -28 1 -43 9 -15 7 -37 13 -48
12 -20 -1 -20 -2 -4 -24 9 -13 29 -26 45 -31 16 -4 31 -13 33 -19 6 -16 -26
-24 -48 -13 -11 7 -19 7 -19 1 0 -5 5 -11 12 -13 21 -7 -39 -57 -62 -51 -11 3
-20 9 -20 14 0 5 -5 9 -11 9 -6 0 -25 11 -43 25 -18 14 -43 25 -55 25 -15 0
-21 5 -19 18 2 10 -2 16 -10 14 -8 -1 -11 2 -8 7 9 14 -4 41 -21 41 -8 0 -11
5 -8 10 3 6 1 10 -4 10 -6 0 -11 5 -11 11 0 5 10 9 23 7 16 -2 22 2 22 17 0
15 -6 19 -22 17 -25 -4 -40 15 -24 31 15 15 14 37 -3 37 -7 0 -21 10 -29 23
-14 19 -18 20 -26 7 -9 -13 -11 -13 -11 3 0 9 5 17 10 17 6 0 10 8 10 18 0 11
-8 17 -25 18 -14 1 -23 -2 -20 -6 3 -5 1 -11 -4 -14 -16 -10 -23 14 -9 32 8
10 1 8 -19 -6 -20 -14 -30 -28 -26 -37 10 -26 -24 -16 -43 13 -9 15 -25 33
-35 40 -10 7 -16 19 -13 27 7 18 24 20 24 2 0 -7 11 -14 25 -15 29 -2 32 14 8
37 -24 21 -28 43 -8 39 9 -2 15 -6 13 -10 -4 -10 43 -57 55 -55 6 1 19 10 30
21 18 17 18 20 4 50 l-16 31 0 -38 c-1 -23 -5 -36 -11 -32 -5 3 -10 17 -10 30
0 12 -8 26 -17 29 -12 5 -13 10 -5 18 9 9 9 15 0 25 -8 10 -6 18 7 33 15 17
19 17 32 4 20 -20 28 -11 13 15 -9 17 -8 25 5 37 8 9 27 31 41 49 15 20 31 32
40 28 8 -3 14 0 14 6 0 17 46 61 63 61 10 0 13 -8 9 -27 l-5 -28 28 25 c19 17
29 21 32 13 3 -7 9 -13 14 -13 11 0 8 32 -3 40 -4 4 -1 16 8 29 14 20 17 20
28 6 10 -14 13 -14 31 0 20 15 20 15 1 30 -19 14 -19 15 -1 35 17 19 19 19 31
2 10 -13 15 -14 24 -5 15 14 5 33 -18 33 -12 0 -8 9 17 32 23 21 43 32 58 30
13 -2 23 1 23 7 0 6 -8 11 -17 11 -15 0 -16 2 -3 10 13 8 13 10 -2 10 -11 0
-15 5 -12 15 5 12 2 13 -12 8 -18 -6 -18 -6 -2 10 10 11 15 25 11 35 -6 15 -5
15 11 3 25 -20 46 1 28 29 -7 11 -8 20 -3 20 5 0 12 -6 15 -12 5 -10 7 -10 12
-1 3 7 12 9 20 6 8 -3 14 0 14 6 0 16 8 14 33 -9z m3252 -122 c14 -6 25 -17
25 -24 0 -34 -55 -175 -104 -267 -30 -56 -75 -163 -101 -237 -26 -74 -59 -157
-73 -185 -51 -101 -92 -208 -92 -239 0 -38 -31 -100 -53 -104 -8 -2 -24 12
-37 33 -12 19 -27 32 -32 29 -7 -5 -6 -11 4 -18 16 -12 13 -33 -9 -54 -19 -19
-16 -30 14 -58 20 -19 33 -23 54 -19 24 5 27 4 22 -14 -3 -12 -9 -21 -14 -21
-5 0 -9 -13 -9 -30 0 -16 -7 -44 -16 -62 -15 -33 -15 -34 20 -87 32 -47 35
-56 22 -70 -8 -9 -16 -24 -17 -34 -3 -16 -9 -13 -39 15 -19 18 -48 48 -63 66
-21 25 -35 33 -55 31 -19 -2 -36 6 -56 26 l-29 29 42 80 c44 87 44 87 37 271
-3 66 -1 137 4 158 14 67 -14 25 -45 -65 -31 -93 -54 -129 -56 -88 -1 24 -1
24 -14 -5 l-14 -30 0 30 c0 17 6 48 14 70 8 22 15 48 15 58 0 9 5 17 10 17 6
0 10 6 8 13 -3 18 12 57 23 57 5 0 9 4 9 8 0 17 100 177 107 172 5 -3 17 14
28 37 11 23 23 42 26 43 14 0 -13 -97 -41 -147 -36 -64 -38 -78 -4 -38 l25 30
-10 -27 c-7 -19 -7 -29 0 -34 17 -10 52 31 51 63 0 44 22 70 67 78 51 8 60 19
120 145 28 58 71 137 96 175 24 39 43 75 40 82 -5 14 35 116 47 121 4 2 8 10
8 18 0 17 11 18 45 2z m-2281 -364 c29 -5 35 -11 40 -38 6 -32 35 -59 53 -48
16 11 35 52 24 52 -5 0 -13 -5 -16 -11 -5 -7 -14 -4 -26 7 -30 27 -23 35 31
33 32 -2 50 -7 50 -14 0 -7 7 -18 15 -25 8 -7 12 -16 9 -21 -3 -5 0 -9 7 -9 6
0 1 -9 -12 -19 -14 -11 -20 -23 -15 -28 5 -4 11 -2 13 4 3 8 14 11 29 7 17 -4
24 -2 24 9 0 16 27 43 36 35 10 -10 -42 -103 -56 -101 -8 0 -44 9 -80 18 -51
14 -92 16 -194 13 -113 -4 -125 -3 -102 9 19 10 26 21 26 43 0 17 10 46 23 66
24 38 16 36 121 18z m-399 -158 c-16 -24 -16 -24 25 -28 32 -3 44 0 51 14 17
31 45 21 40 -14 0 -4 14 -2 31 4 24 9 33 8 36 0 6 -20 42 -14 42 7 0 24 26 31
115 31 184 0 349 -87 430 -224 21 -35 29 -65 33 -117 6 -87 -9 -142 -57 -205
-148 -196 -494 -231 -704 -70 -57 44 -75 42 -22 -2 138 -113 373 -144 564 -74
119 45 163 73 203 134 51 75 72 147 64 219 -5 49 -3 57 9 53 8 -4 15 -1 15 6
0 7 6 5 16 -5 15 -15 15 -18 -5 -39 -20 -21 -21 -27 -11 -71 6 -27 9 -54 6
-62 -3 -8 2 -13 14 -13 11 0 20 -7 20 -15 0 -8 -4 -15 -10 -15 -5 0 -10 -10
-11 -22 0 -13 -3 -17 -6 -10 -8 20 -30 14 -52 -14 -22 -28 -28 -64 -11 -64 5
0 7 -6 5 -12 -3 -9 5 -14 25 -15 36 -3 48 14 24 32 -11 8 -14 15 -7 15 6 0 15
-5 18 -11 5 -7 15 -3 29 10 18 17 23 18 23 6 0 -8 -7 -15 -15 -15 -9 0 -12 -3
-9 -7 4 -3 -1 -12 -11 -19 -13 -11 -14 -15 -4 -22 10 -7 9 -14 -6 -33 -11 -13
-17 -30 -15 -37 3 -8 -1 -10 -14 -5 -21 8 -48 33 -36 33 4 0 14 4 22 9 12 8
13 12 2 25 -11 12 -17 14 -27 5 -14 -12 -19 -2 -15 30 2 8 -2 10 -11 5 -7 -5
-17 -9 -23 -10 -5 0 -16 -2 -23 -2 -10 -2 -7 -10 8 -29 l22 -28 -37 -6 c-20
-3 -41 -11 -47 -17 -7 -7 -17 -8 -28 -2 -9 5 -22 5 -31 0 -15 -10 -16 -8 34
-79 16 -22 26 -45 22 -52 -8 -12 -27 12 -31 40 -4 23 -29 42 -47 35 -13 -5
-14 -10 -6 -25 11 -22 -5 -27 -18 -6 -9 15 -54 47 -65 47 -5 0 -22 -13 -39
-29 -17 -17 -37 -27 -45 -24 -8 3 -20 0 -28 -6 -10 -9 -15 -8 -20 4 -7 19 -40
19 -60 0 -20 -21 -29 -19 -23 5 5 21 -7 28 -18 10 -12 -20 -35 -10 -35 15 0
40 -41 30 -54 -12 -7 -21 -36 -33 -36 -15 0 4 -14 16 -30 27 -16 11 -30 27
-30 34 0 12 -3 12 -12 3 -7 -7 -30 -12 -51 -12 -31 0 -38 3 -33 15 3 8 9 22
12 30 9 21 -15 19 -51 -5 -36 -24 -46 -25 -39 -5 4 8 -1 26 -10 39 -15 24 -14
25 11 33 24 8 24 10 9 25 -9 9 -12 19 -7 22 5 4 11 0 13 -6 3 -8 10 -4 17 11
11 20 10 26 -3 39 -12 13 -16 13 -16 3 0 -23 -69 -82 -100 -86 -36 -5 -31 20
5 29 63 16 44 82 -19 71 -46 -9 -66 16 -31 39 32 21 32 36 1 36 -14 0 -32 -10
-40 -22 l-16 -22 -16 23 c-15 20 -21 22 -65 16 -30 -4 -49 -3 -49 3 0 19 139
40 150 23 4 -8 17 -10 33 -6 15 4 25 10 22 15 -2 4 7 12 20 18 31 14 38 76 8
70 -9 -2 -28 8 -41 21 -21 21 -22 25 -8 33 9 5 16 16 16 23 0 11 12 15 44 15
58 0 96 15 96 37 0 10 -12 36 -25 58 -29 46 -30 55 -11 55 7 0 16 11 18 24 4
19 -1 27 -21 36 -20 9 -22 13 -11 20 9 6 20 4 30 -5 18 -16 40 -3 40 22 0 7 7
13 15 13 14 0 14 -3 0 -24z m747 -33 c16 -3 29 -13 32 -27 5 -18 8 -19 16 -6
5 8 10 11 10 7 0 -4 16 4 35 19 41 31 47 19 10 -19 -22 -22 -26 -34 -26 -91
-1 -71 -10 -82 -33 -38 -8 15 -40 52 -73 83 -48 46 -57 59 -48 73 6 11 17 15
30 10 11 -3 32 -8 47 -11z m-1719 -418 c8 -16 43 -58 76 -92 34 -35 61 -66 61
-70 0 -5 -14 -16 -31 -25 -23 -14 -35 -15 -50 -7 -19 10 -20 9 -9 -11 6 -12 9
-24 6 -27 -7 -8 -45 36 -70 80 l-19 32 25 -23 c19 -17 28 -20 33 -11 5 7 2 17
-7 23 -8 6 -14 25 -14 41 1 23 -4 31 -20 33 -16 2 -20 8 -17 22 3 11 -1 26
-10 34 -12 12 -12 24 -4 68 l11 53 11 -45 c7 -25 19 -58 28 -75z m732 -59 c31
-1 29 -62 -4 -106 -59 -82 -137 -152 -197 -180 -65 -29 -87 -53 -129 -143 -32
-66 -78 -111 -106 -102 -13 4 -19 1 -19 -9 0 -15 -67 -85 -82 -86 -5 0 -8 15
-9 33 -1 31 -1 31 -24 -19 -21 -47 -55 -79 -55 -52 0 7 -5 6 -15 -2 -8 -7 -15
-9 -15 -5 0 14 35 110 42 115 4 3 14 30 21 60 8 30 18 54 23 52 5 -1 11 12 14
30 8 53 25 13 23 -57 0 -40 2 -53 8 -40 8 19 8 19 15 -2 7 -27 17 -29 33 -9
10 11 10 20 0 37 -10 19 -9 25 7 36 10 7 23 13 29 13 20 0 2 113 -23 145 -22
28 -83 64 -109 65 -7 0 -13 4 -13 8 0 5 -14 22 -31 39 -30 32 -30 32 -9 43 12
6 24 9 28 6 3 -3 0 -6 -6 -6 -7 0 -12 -4 -12 -10 0 -5 18 -13 40 -16 35 -6 45
-14 92 -83 l53 -76 12 95 c6 52 12 96 12 98 1 2 16 0 35 -3 51 -10 114 28 120
72 4 24 86 27 86 3 0 -12 2 -12 9 -2 6 10 19 11 45 7 44 -9 49 -16 36 -50 -7
-18 -15 -25 -26 -21 -15 6 -32 -19 -21 -31 10 -9 77 27 74 40 -1 7 3 11 9 10
10 -2 12 3 16 45 0 9 6 20 12 24 17 12 -18 10 -50 -2 -32 -12 -75 -3 -53 11 8
5 25 9 38 9 18 0 22 4 18 20 -4 17 -3 18 16 8 12 -7 31 -12 42 -12z m1659 -18
c37 -30 44 -32 103 -30 59 3 67 1 90 -24 l25 -27 -24 7 c-56 17 -63 19 -56 11
4 -4 -2 -15 -14 -25 -21 -17 -18 -40 6 -40 28 0 51 -44 53 -103 1 -35 10 -76
22 -102 12 -25 21 -48 21 -53 0 -13 58 -60 88 -70 17 -7 21 -11 10 -11 -10 -1
-18 -6 -18 -13 0 -15 60 -78 75 -78 6 0 18 -9 27 -19 9 -10 22 -23 29 -27 8
-5 31 -31 51 -57 42 -56 213 -202 253 -217 15 -6 25 -13 22 -16 -10 -10 -86
40 -162 106 -81 70 -164 114 -214 114 -25 0 -41 7 -57 25 -23 27 -44 22 -44
-12 -1 -18 -3 -17 -14 9 -8 18 -19 35 -25 38 -15 10 -14 -17 2 -34 6 -8 2 -6
-11 5 -20 16 -25 17 -33 5 -5 -8 -7 -27 -5 -42 7 -34 -4 -128 -15 -128 -4 0
-10 13 -14 30 -6 27 -37 60 -57 60 -5 0 -8 -9 -8 -21 0 -12 -8 -23 -20 -26
-25 -7 -26 -23 -1 -23 26 0 35 -29 16 -50 -14 -16 -14 -18 5 -31 19 -13 20
-16 6 -34 -14 -19 -14 -19 -35 5 -11 14 -20 33 -21 42 0 10 -3 17 -8 15 -4 -1
-18 7 -30 19 l-22 21 20 25 c24 31 26 53 5 44 -8 -3 -14 -2 -14 2 1 4 1 26 0
50 -1 43 -21 61 -21 20 -1 -13 -7 -34 -15 -48 l-14 -25 -1 30 c-1 108 -39 151
-41 48 -1 -32 -4 -48 -6 -35 -2 12 -8 22 -13 22 -5 0 -9 8 -9 18 0 27 -25 130
-34 138 -7 7 -12 -56 -8 -107 1 -14 -5 -32 -14 -39 -18 -15 -19 -3 -8 128 4
59 10 82 19 82 20 0 17 18 -3 25 -10 3 -26 17 -36 30 -16 22 -16 25 -2 25 9 0
14 4 11 9 -7 10 -31 9 -42 -2 -3 -3 -17 1 -30 10 -20 13 -27 13 -40 3 -8 -7
-13 -19 -10 -26 2 -6 -4 -14 -15 -17 -32 -9 -67 61 -39 78 6 4 7 11 4 17 -4 7
-9 7 -13 -1 -4 -6 -14 3 -24 22 -10 18 -31 41 -46 52 -18 11 -31 30 -33 47 -4
25 -1 28 23 28 33 0 59 9 59 21 0 5 -9 9 -21 9 -15 0 -19 4 -15 16 3 9 6 19 6
23 0 9 104 8 109 -2 2 -4 1 -21 -3 -38 -5 -27 -8 -30 -21 -19 -11 9 -12 16 -5
25 11 13 -6 25 -36 25 -12 0 -12 -4 2 -25 10 -16 14 -34 10 -50 -4 -14 -2 -25
4 -25 5 0 10 5 10 10 0 6 9 10 20 10 11 0 20 5 20 10 0 6 9 10 21 10 18 0 20
4 14 33 -4 17 -12 38 -17 44 -6 7 -8 19 -5 27 5 11 -1 12 -29 3 -43 -13 -56
-1 -26 24 34 27 104 47 110 31 2 -7 7 -10 11 -7 4 2 37 1 72 -3 54 -6 67 -4
82 11 24 24 37 22 81 -15z m-1384 -237 c0 -6 -11 -22 -25 -37 -16 -17 -23 -34
-19 -43 4 -9 6 -24 6 -34 -1 -10 4 -17 9 -15 6 2 10 7 9 12 -1 5 5 13 14 18 9
5 16 18 16 28 0 28 14 25 30 -6 11 -19 11 -32 3 -54 -6 -15 -7 -32 -3 -37 5
-4 13 -25 18 -45 8 -29 7 -40 -4 -49 -19 -16 -18 -30 4 -27 26 4 27 -42 3 -88
-25 -45 -27 -106 -6 -124 8 -7 15 -9 15 -4 0 5 6 0 12 -10 9 -16 6 -23 -18
-44 -20 -17 -28 -33 -27 -51 2 -14 0 -19 -3 -11 -3 8 -9 24 -14 35 -16 37 -28
90 -28 122 -1 41 -8 53 -32 53 -10 0 -22 5 -26 11 -4 8 -12 3 -21 -12 -13 -23
-14 -23 -8 -1 8 27 -19 31 -30 5 -6 -16 -8 -15 -16 5 -14 35 -33 21 -40 -29
-11 -88 -29 -126 -93 -203 -74 -90 -136 -200 -136 -245 0 -32 28 -101 41 -101
4 0 11 9 14 20 7 21 25 28 25 10 0 -5 8 -10 17 -10 9 0 25 -8 36 -17 20 -18
20 -17 14 18 l-5 36 49 -50 c53 -53 66 -57 49 -12 -6 15 -9 30 -6 32 2 3 7 -5
11 -16 8 -25 25 -28 25 -3 0 10 7 3 17 -17 10 -20 30 -39 50 -47 18 -8 33 -21
33 -29 0 -13 32 -38 41 -32 2 1 -5 -6 -16 -15 -11 -10 -30 -18 -41 -18 -12 0
-27 -7 -34 -15 -11 -13 -15 -13 -22 -3 -6 10 -14 7 -31 -13 -13 -14 -30 -28
-39 -31 -9 -4 -22 -19 -30 -35 -7 -15 -22 -29 -33 -32 -27 -5 -32 -16 -27 -51
4 -31 22 -42 22 -15 0 8 6 15 14 15 8 0 16 -7 20 -15 9 -25 39 -16 70 21 26
31 27 38 16 59 -20 37 -7 55 40 55 39 0 40 -1 34 -27 -4 -16 -10 -29 -13 -31
-32 -14 -36 -21 -16 -36 11 -8 23 -12 27 -10 5 3 8 -2 8 -10 0 -9 5 -16 12
-16 9 0 9 -3 0 -12 -7 -7 -12 -20 -12 -30 0 -9 -6 -21 -14 -25 -8 -4 -14 -17
-13 -28 1 -11 -5 -21 -15 -23 -13 -2 -16 1 -12 12 4 11 0 13 -14 9 -23 -6 -36
-54 -19 -65 7 -4 24 -8 40 -8 35 0 36 -27 2 -40 -14 -5 -27 -20 -31 -35 -5
-19 -10 -23 -17 -16 -6 6 -21 11 -33 11 -27 0 -41 17 -25 33 6 6 11 25 11 42
0 17 9 41 20 52 16 18 17 22 4 27 -9 3 -24 1 -35 -4 -16 -9 -27 -2 -74 46 -30
32 -58 55 -61 51 -3 -3 -13 -20 -22 -39 -25 -48 -41 -49 -134 -3 -25 13 -28
12 -28 -3 0 -11 -10 -3 -27 21 -28 40 -31 41 -53 27 -24 -15 -50 17 -50 64 0
23 -10 75 -21 116 -32 114 -34 139 -14 154 23 17 22 55 -4 108 -11 25 -21 51
-21 60 0 8 -11 24 -25 34 -16 12 -25 29 -25 47 0 19 -7 31 -24 38 -14 7 -29
26 -36 49 -10 32 -10 45 4 87 11 33 14 64 10 91 -6 40 -6 40 32 51 22 6 44 11
51 11 6 0 43 11 82 24 l70 24 -5 -32 c-4 -17 -26 -90 -50 -161 -38 -111 -44
-142 -44 -211 0 -81 15 -134 38 -134 6 0 12 4 12 9 0 5 11 12 25 15 21 5 24
10 15 25 -7 14 -6 27 5 48 8 15 15 32 15 37 0 5 12 35 27 68 17 38 31 57 39
54 7 -3 16 -1 19 4 3 4 0 10 -7 12 -8 3 1 27 25 71 43 78 44 95 16 157 -31 67
-32 121 -4 156 19 23 26 27 36 17 7 -7 17 -13 21 -13 13 0 9 48 -4 54 -9 3 -6
11 10 25 18 15 29 18 52 11 17 -5 30 -5 30 0 0 5 8 11 19 15 10 3 29 14 41 25
28 24 44 26 36 4 -5 -13 -2 -15 16 -10 13 3 31 6 41 6 20 0 24 44 5 56 -7 5
-4 10 10 15 12 5 22 15 22 24 0 18 21 20 38 3 9 -9 15 -10 20 -2 12 19 52 30
52 15z m506 -31 c4 -16 12 -35 20 -41 16 -13 37 -2 28 14 -4 7 -1 6 7 -2 10
-10 11 -15 2 -18 -9 -3 -9 -10 -1 -29 6 -13 15 -24 20 -24 4 0 8 -5 8 -11 0
-6 24 -43 52 -83 l53 -71 0 -97 c0 -54 2 -98 4 -98 2 0 9 8 16 17 12 16 15 16
50 -2 65 -35 145 -129 145 -171 0 -14 -17 0 -32 27 -14 24 -23 30 -45 27 -36
-4 -33 -28 8 -80 16 -20 29 -45 29 -55 0 -15 14 -43 36 -72 2 -2 15 6 30 18
15 11 33 21 40 21 7 0 18 9 24 20 6 11 20 25 33 31 22 12 22 12 3 -9 -11 -13
-16 -30 -13 -41 6 -24 -16 -46 -39 -37 -24 9 -53 -11 -47 -33 8 -32 -16 -34
-35 -2 -10 17 -21 28 -24 25 -3 -3 -5 2 -4 11 0 10 -9 21 -21 26 -14 5 -23 5
-23 -2 0 -5 -11 -14 -25 -19 -38 -14 -31 -30 7 -19 45 13 48 12 48 -12 0 -19
-4 -20 -34 -15 -22 4 -37 2 -42 -5 -5 -9 -10 -6 -15 8 -6 15 -14 19 -38 15
-29 -4 -30 -6 -25 -38 4 -27 2 -34 -11 -34 -9 0 -13 -5 -10 -10 4 -6 -1 -33
-11 -61 -15 -40 -24 -51 -46 -56 -21 -4 -28 -12 -30 -37 -3 -27 -5 -28 -12
-11 -4 11 -13 30 -19 43 -10 22 -12 22 -24 6 -7 -10 -14 -34 -14 -53 l-1 -36
-7 30 c-4 20 -12 30 -24 29 -10 -1 -20 8 -23 22 -6 25 -24 33 -24 12 0 -10 -3
-10 -9 0 -6 10 -10 7 -15 -13 -5 -21 -11 -25 -29 -19 -12 3 -29 12 -37 18 -23
19 -52 8 -49 -17 1 -12 -3 -35 -9 -50 -19 -46 -15 -57 21 -59 17 0 39 -2 47
-3 8 -1 25 7 37 18 28 25 48 14 31 -16 -6 -12 -12 -24 -12 -27 -1 -3 -4 -4 -8
-3 -5 2 -8 -1 -8 -6 0 -15 -73 -46 -78 -32 -3 9 -7 9 -19 0 -11 -10 -16 -10
-23 0 -5 9 -18 11 -39 6 -26 -6 -30 -4 -25 10 4 10 -2 24 -14 36 -26 24 -42
24 -42 2 0 -12 -3 -14 -8 -6 -10 16 -61 12 -55 -4 3 -8 -4 -13 -18 -14 -13 0
-36 -3 -51 -5 -24 -4 -28 -1 -28 21 0 27 9 32 28 13 9 -9 13 -7 18 5 3 9 10
17 15 17 6 0 20 9 32 21 18 16 22 32 24 87 1 36 5 78 8 92 4 17 3 20 -3 11 -7
-10 -11 -10 -17 -1 -6 10 -9 10 -15 0 -4 -7 -10 -8 -13 -3 -4 6 14 34 39 63
25 29 51 65 59 80 7 14 21 32 29 39 9 8 16 23 16 35 1 21 1 21 15 2 8 -11 17
-17 20 -14 11 10 -7 58 -21 58 -21 0 -27 25 -13 52 6 13 30 38 52 57 46 40 67
84 67 139 0 42 53 160 76 169 8 3 14 18 14 33 0 29 19 43 45 34 8 -4 15 -1 15
6 0 6 5 8 10 5 6 -4 8 -11 5 -16 -4 -5 -2 -17 4 -26 8 -16 11 -15 20 10 15 38
14 57 -3 57 -25 0 -36 23 -20 44 17 24 10 36 -21 36 -30 0 -37 12 -29 45 8 34
33 32 40 -5z m409 -331 c20 -23 44 -58 52 -78 8 -20 24 -44 34 -54 10 -10 19
-29 19 -42 0 -20 -5 -25 -24 -25 -13 0 -26 6 -29 14 -3 8 -23 20 -44 26 -21 7
-50 21 -65 31 -14 11 -30 19 -35 19 -5 0 -19 10 -31 23 -15 16 -18 27 -12 37
5 8 10 25 10 38 0 16 -6 22 -22 22 -44 1 23 29 68 30 36 0 47 -5 79 -41z m715
-568 c0 -5 17 -11 39 -15 45 -7 65 -27 56 -55 -3 -11 -1 -28 6 -39 33 -53 -42
-113 -97 -77 -22 14 -25 22 -22 68 2 37 7 51 16 49 14 -3 8 34 -9 53 -12 12
-11 25 1 25 6 0 10 -4 10 -9z"/>
<path d="M5135 4950 c6 -9 -8 -14 -28 -11 -5 1 -5 -3 -2 -9 4 -6 13 -9 21 -6
7 3 19 -3 26 -12 7 -10 27 -24 45 -31 18 -7 37 -19 43 -26 6 -7 -29 7 -77 31
-47 24 -89 42 -91 39 -3 -3 0 -5 6 -5 7 0 12 -4 12 -9 0 -4 -10 -7 -23 -6 -15
2 -24 -2 -24 -11 0 -9 4 -11 12 -4 13 11 53 -25 42 -37 -4 -3 -7 -1 -7 5 0 7
-5 12 -11 12 -19 0 8 -26 45 -44 18 -8 33 -22 33 -31 0 -20 -46 -20 -53 0 -4
8 -14 15 -23 15 -9 0 -22 10 -30 21 -11 19 -11 21 3 16 10 -4 13 -1 9 9 -4 11
-8 12 -20 3 -9 -9 -11 -15 -3 -23 12 -12 13 -27 1 -23 -5 1 -9 -1 -10 -5 -3
-23 0 -30 12 -26 6 2 23 -7 37 -21 l25 -25 -28 18 c-16 9 -33 16 -40 13 -6 -2
-44 12 -85 30 -40 19 -77 31 -82 28 -6 -4 3 -22 19 -42 17 -20 27 -41 24 -46
-3 -6 -2 -7 4 -4 11 7 55 -21 49 -31 -2 -4 16 -8 41 -9 25 -1 51 -7 59 -14 8
-6 25 -9 39 -7 13 3 22 2 20 -2 -3 -5 14 -6 37 -3 23 4 39 2 35 -3 -3 -5 14
-9 36 -8 48 0 97 -11 144 -32 51 -23 123 -14 83 11 -5 3 -10 11 -10 16 0 15
43 7 58 -11 9 -10 11 -10 6 -1 -3 7 -1 17 6 21 9 6 7 13 -8 28 -11 11 -30 35
-43 54 -17 25 -30 34 -46 32 -12 -2 -23 3 -27 12 -4 10 -2 13 6 8 7 -4 8 -3 4
4 -4 7 -17 12 -29 12 -12 0 -33 9 -47 20 -14 11 -30 20 -37 20 -6 0 -18 8 -25
18 -7 9 -20 18 -28 20 -8 2 -17 7 -20 11 -3 5 -15 11 -28 15 -12 4 -20 11 -17
15 2 5 -7 13 -21 20 -15 6 -23 7 -19 1z"/>
<path d="M1624 3832 c2 -4 1 -14 -4 -21 -6 -11 -12 -11 -31 2 -21 15 -23 15
-36 -10 -11 -22 -11 -28 2 -43 8 -9 15 -22 15 -29 0 -7 4 -10 9 -7 5 3 26 -7
47 -22 67 -49 94 -65 94 -56 0 5 -14 17 -30 26 -17 10 -30 25 -30 37 0 16 6
19 34 18 23 -1 31 -6 25 -13 -5 -6 0 -17 12 -28 17 -14 23 -15 37 -4 13 11 15
11 9 -4 -3 -10 -3 -17 1 -17 18 3 52 -15 52 -27 0 -12 11 -16 72 -29 27 -5 31
12 7 25 -17 10 -20 9 -14 -2 3 -7 -2 -4 -12 8 -10 11 -24 19 -31 16 -7 -2 -16
5 -19 17 -3 12 -16 24 -29 27 -13 3 -24 12 -24 20 0 8 -3 13 -7 12 -19 -5 -72
15 -77 28 -4 10 -2 13 7 8 6 -4 -6 12 -28 35 -34 36 -66 56 -51 33z"/>
<path d="M2642 2451 c2 -44 0 -77 -4 -74 -5 2 -8 11 -8 19 0 8 -4 14 -10 14
-14 0 -13 -6 6 -46 9 -19 21 -34 26 -34 7 0 8 -15 5 -37 -4 -20 -2 -42 3 -48
15 -18 68 -6 75 17 5 13 12 17 25 13 12 -4 22 1 29 12 9 16 10 16 11 -4 0 -16
4 -21 16 -16 11 4 15 15 12 34 -4 25 -1 29 19 29 26 0 29 8 10 34 -12 17 -15
16 -46 -15 -31 -30 -33 -31 -29 -9 2 18 -5 28 -37 45 -44 25 -52 39 -36 59 21
25 -16 86 -51 86 -18 0 -19 -7 -16 -79z"/>
<path d="M2501 2173 c-8 -14 -11 -15 -11 -3 -1 30 -29 -22 -34 -64 -17 -137
-17 -133 7 -140 14 -4 26 0 35 11 11 15 12 15 12 1 0 -9 7 -19 16 -22 20 -8
46 51 33 76 -5 9 -9 26 -9 38 0 17 -4 20 -21 15 -21 -7 -22 -5 -16 31 4 22 7
45 7 52 0 7 5 10 12 6 7 -4 8 -3 4 4 -10 17 -23 15 -35 -5z"/>
</g>
</svg>
